<?xml version="1.0" encoding="utf-8"?>
<!-- Generator: Adobe Illustrator 24.1.2, SVG Export Plug-In . SVG Version: 6.00 Build 0)  -->
<svg version="1.1" id="Layer_1" xmlns="http://www.w3.org/2000/svg" xmlns:xlink="http://www.w3.org/1999/xlink" x="0px" y="0px"
	 viewBox="0 0 288 288" style="enable-background:new 0 0 288 288;" xml:space="preserve">
<style type="text/css">
	.st0{fill:#FFFFFF;stroke:#FFFFFF;stroke-miterlimit:10;}
</style>
<path class="st0" d="M215.85,86.37H82.57c-6.6,0-12-5.4-12-12v-3.81c0-6.6,5.4-12,12-12h133.28c6.6,0,12,5.4,12,12v3.81
	C227.85,80.97,222.45,86.37,215.85,86.37z"/>
<path class="st0" d="M215.85,139.35H82.57c-6.6,0-12-5.4-12-12v-3.81c0-6.6,5.4-12,12-12h133.28c6.6,0,12,5.4,12,12v3.81
	C227.85,133.95,222.45,139.35,215.85,139.35z"/>
<path class="st0" d="M215.85,192.33H82.57c-6.6,0-12-5.4-12-12v-3.81c0-6.6,5.4-12,12-12h133.28c6.6,0,12,5.4,12,12v3.81
	C227.85,186.93,222.45,192.33,215.85,192.33z"/>
</svg>
