<?xml version="1.0" encoding="utf-8"?>
<!-- Generator: Adobe Illustrator 24.0.1, SVG Export Plug-In . SVG Version: 6.00 Build 0)  -->
<svg version="1.1" id="Layer_1" xmlns="http://www.w3.org/2000/svg" xmlns:xlink="http://www.w3.org/1999/xlink" x="0px" y="0px"
	 viewBox="0 0 24 24" style="enable-background:new 0 0 24 24;" xml:space="preserve">
<style type="text/css">
	.st0{fill:none;}
	.st1{fill:#F58E8B;}
</style>
<path class="st0" d="M-163,0h24v24h-24V0z"/>
<path class="st1" d="M1.3,19.2h21.3c0.7,0,1.3-0.6,1.3-1.3c0-0.7-0.6-1.3-1.3-1.3H1.3c-0.7,0-1.3,0.6-1.3,1.3
	C0,18.6,0.6,19.2,1.3,19.2z M1.3,12.5h21.3c0.7,0,1.3-0.6,1.3-1.3c0-0.7-0.6-1.3-1.3-1.3H1.3C0.6,9.9,0,10.5,0,11.2
	C0,11.9,0.6,12.5,1.3,12.5z M0,4.5c0,0.7,0.6,1.3,1.3,1.3h21.3c0.7,0,1.3-0.6,1.3-1.3s-0.6-1.3-1.3-1.3H1.3C0.6,3.2,0,3.8,0,4.5z"/>
</svg>
